HIERARCHY
ROOT Hips
{
  OFFSET -27.3825 93.2414 -29.4013
  CHANNELS 6 Xposition Yposition Zposition Zrotation Xrotation Yrotation
  JOINT LeftUpLeg
  {
    OFFSET 9.63379 -0.250344 0
    CHANNELS 6 Xposition Yposition Zposition Zrotation Xrotation Yrotation
    JOINT LeftLeg
    {
      OFFSET 0 -40.4779 -1.71313
      CHANNELS 6 Xposition Yposition Zposition Zrotation Xrotation Yrotation
      JOINT LeftFoot
      {
        OFFSET 0.0126047 -40.4416 -0.864524
        CHANNELS 6 Xposition Yposition Zposition Zrotation Xrotation Yrotation
        JOINT LeftToeBase
        {
          OFFSET -0.183287 -12.1867 8.28226
          CHANNELS 6 Xposition Yposition Zposition Zrotation Xrotation Yrotation
          End Site
          {
            OFFSET 0 0 9.15615
          }
        }
      }
    }
  }
  JOINT RightUpLeg
  {
    OFFSET -9.63379 -0.250344 0
    CHANNELS 6 Xposition Yposition Zposition Zrotation Xrotation Yrotation
    JOINT RightLeg
    {
      OFFSET 0 -40.478 -1.71313
      CHANNELS 6 Xposition Yposition Zposition Zrotation Xrotation Yrotation
      JOINT RightFoot
      {
        OFFSET -0.0126047 -40.4414 -0.864524
        CHANNELS 6 Xposition Yposition Zposition Zrotation Xrotation Yrotation
        JOINT RightToeBase
        {
          OFFSET 0.183287 -12.1867 8.28226
          CHANNELS 6 Xposition Yposition Zposition Zrotation Xrotation Yrotation
          End Site
          {
            OFFSET 0.00319481 0 9.156
          }
        }
      }
    }
  }
  JOINT Spine
  {
    OFFSET 0 5.60909 -1.89659
    CHANNELS 6 Xposition Yposition Zposition Zrotation Xrotation Yrotation
    JOINT Spine1
    {
      OFFSET 0 6.56349 1.09934
      CHANNELS 6 Xposition Yposition Zposition Zrotation Xrotation Yrotation
      JOINT Spine2
      {
        OFFSET 0 7.57662 1.04304
        CHANNELS 6 Xposition Yposition Zposition Zrotation Xrotation Yrotation
        JOINT Spine3
        {
          OFFSET 0 8.29213 0.399731
          CHANNELS 6 Xposition Yposition Zposition Zrotation Xrotation Yrotation
          JOINT Spine4
          {
            OFFSET 0 8.9581 -0.526302
            CHANNELS 6 Xposition Yposition Zposition Zrotation Xrotation Yrotation
            JOINT Neck
            {
              OFFSET 0 18.4163 -4.35419
              CHANNELS 6 Xposition Yposition Zposition Zrotation Xrotation Yrotation
              JOINT Head
              {
                OFFSET 0 8.97127 1.78542
                CHANNELS 6 Xposition Yposition Zposition Zrotation Xrotation Yrotation
                End Site
                {
                  OFFSET 0 19.3737 0.971395
                }
              }
            }
            JOINT LeftShoulder
            {
              OFFSET 6.14423 15.3316 -3.79324
              CHANNELS 6 Xposition Yposition Zposition Zrotation Xrotation Yrotation
              JOINT LeftArm
              {
                OFFSET 9.01906 -1.11411 -1.79347
                CHANNELS 6 Xposition Yposition Zposition Zrotation Xrotation Yrotation
                JOINT LeftForeArm
                {
                  OFFSET 27.687 0 0
                  CHANNELS 6 Xposition Yposition Zposition Zrotation Xrotation Yrotation
                  JOINT LeftHand
                  {
                    OFFSET 27.8738 0 0
                    CHANNELS 6 Xposition Yposition Zposition Zrotation Xrotation Yrotation
                    End Site
                    {
                      OFFSET 5 0 0
                    }
                  }
                }
              }
            }
            JOINT RightShoulder
            {
              OFFSET -6.14423 15.3316 -3.79324
              CHANNELS 6 Xposition Yposition Zposition Zrotation Xrotation Yrotation
              JOINT RightArm
              {
                OFFSET -9.01884 -1.11411 -1.79347
                CHANNELS 6 Xposition Yposition Zposition Zrotation Xrotation Yrotation
                JOINT RightForeArm
                {
                  OFFSET -27.0381 0.00109999 0
                  CHANNELS 6 Xposition Yposition Zposition Zrotation Xrotation Yrotation
                  JOINT RightHand
                  {
                    OFFSET -28.5227 0 0
                    CHANNELS 6 Xposition Yposition Zposition Zrotation Xrotation Yrotation
                    End Site
                    {
                      OFFSET -5 0 0
                    }
                  }
                }
              }
            }
          }
        }
      }
    }
  }
}
MOTION
Frames:	7
Frame Time:	0.00833333
-27.4701 90.6499 -226.297 -1.27244 7.15902 -0.245689 9.63379 -0.250344 -7.15256e-007 2.74742 -9.2459 9.36344 0 -40.4779 -1.71313 -4.01738 3.64661 0.106223 0.0126047 -40.4416 -0.864524 -0.0135454 0.0512073 -0.000899741 -0.183287 -12.1867 8.28226 1.70565e-011 -4.43765e-011 -5.82837e-011 -9.63379 -0.250344 -7.15256e-007 -1.86577 -10.9131 5.91118 0 -40.478 -1.71313 6.66969 8.36172 1.27046 -0.0126047 -40.4414 -0.864524 -0.0108721 -2.49506 0.000449802 0.183287 -12.1867 8.28226 -8.64351e-012 2.42533e-011 2.08613e-011 -2.64698e-023 5.60909 -1.89659 1.05346 -0.622121 -0.101578 0 6.56349 1.09934 -0.069024 -1.2419 -0.411838 0 7.57662 1.04304 -0.0689758 -1.24169 -0.41246 0 8.29213 0.399731 -0.0689426 -1.24149 -0.413083 0 8.9581 -0.526302 -0.0689243 -1.24128 -0.413707 0 18.4163 -4.35419 0.129477 -4.25733 3.49415 1.05879e-022 8.97127 1.78542 4.91365 2.72576 2.19988 6.14423 15.3316 -3.79324 -28.6952 2.61923 -4.01831 9.01906 -1.11411 -1.79347 -55.6479 -0.98545 -18.2473 27.687 0 0 7.47983 33.3539 -4.40934e-011 27.8738 0 0 0.466021 -2.41257 -8.75719 -6.14423 15.3316 -3.79324 35.4649 3.01809 3.75269 -9.01884 -1.11411 -1.79347 41.0206 12.0556 17.7666 -27.0381 0.00109999 5.96046e-008 0.0649631 1.32204 1.26242e-007 -28.5227 0 0 -13.5136 -1.53354 5.01169 
-27.4667 90.6488 -226.297 -1.27187 7.14809 -0.258724 9.63379 -0.250344 -7.15256e-007 2.75226 -9.24161 9.37402 0 -40.4779 -1.71313 -4.02625 3.66256 0.106225 0.0126047 -40.4416 -0.864524 -0.0135454 0.0536228 -0.000899741 -0.183287 -12.1867 8.28226 1.70565e-011 -4.43765e-011 -5.82837e-011 -9.63379 -0.250344 -7.15256e-007 -1.86388 -10.8989 5.92417 0 -40.478 -1.71313 6.66474 8.35218 1.27542 -0.0126047 -40.4414 -0.864524 -0.0108721 -2.49497 0.000449802 0.183287 -12.1867 8.28226 -8.64351e-012 2.42533e-011 2.08613e-011 -2.64698e-023 5.60909 -1.89659 1.05179 -0.619301 -0.099233 0 6.56349 1.09934 -0.0717548 -1.23624 -0.406697 0 7.57662 1.04304 -0.0717069 -1.23604 -0.407317 0 8.29213 0.399731 -0.0716738 -1.23584 -0.407937 0 8.9581 -0.526302 -0.0716556 -1.23563 -0.408558 0 18.4163 -4.35419 0.215546 -4.01887 3.5035 1.05879e-022 8.97127 1.78542 4.69152 2.38474 2.30273 6.14423 15.3316 -3.79324 -28.727 2.61387 -3.99627 9.01906 -1.11411 -1.79347 -55.5753 -0.985462 -18.2452 27.687 0 0 7.47238 33.2702 -4.40511e-011 27.8738 0 0 0.54728 -2.39012 -8.78215 -6.14423 15.3316 -3.79324 35.4795 3.01904 3.75237 -9.01884 -1.11411 -1.79347 41.0173 12.0541 17.7511 -27.0381 0.00109999 5.96046e-008 0.0688381 1.3191 1.26242e-007 -28.5227 0 0 -13.4861 -1.52261 4.94634 
-27.4632 90.6477 -226.298 -1.27121 7.13736 -0.271389 9.63379 -0.250344 -7.15256e-007 2.7566 -9.23728 9.38396 0 -40.4779 -1.71313 -4.03468 3.6778 0.106227 0.0126047 -40.4416 -0.864524 -0.0135453 0.0559423 -0.000899741 -0.183287 -12.1867 8.28226 1.70565e-011 -4.43765e-011 -5.82837e-011 -9.63379 -0.250344 -7.15256e-007 -1.86246 -10.8856 5.93518 0 -40.478 -1.71313 6.6599 8.34406 1.28007 -0.0126047 -40.4414 -0.864524 -0.0108721 -2.49495 0.000449802 0.183287 -12.1867 8.28226 -8.64351e-012 2.42533e-011 2.08613e-011 -2.64698e-023 5.60909 -1.89659 1.05016 -0.616571 -0.0969299 0 6.56349 1.09934 -0.0744572 -1.23077 -0.401655 0 7.57662 1.04304 -0.0744097 -1.23057 -0.402272 0 8.29213 0.399731 -0.0743768 -1.23037 -0.402889 0 8.9581 -0.526302 -0.0743585 -1.23017 -0.403508 0 18.4163 -4.35419 0.298221 -3.78583 3.51272 1.05879e-022 8.97127 1.78542 4.47683 2.05231 2.40257 6.14423 15.3316 -3.79324 -28.7576 2.60834 -3.97403 9.01906 -1.11411 -1.79347 -55.5044 -0.985477 -18.2426 27.687 0 0 7.4655 33.1848 -4.40081e-011 27.8738 0 0 0.626711 -2.36824 -8.8076 -6.14423 15.3316 -3.79324 35.4951 3.02012 3.75218 -9.01884 -1.11411 -1.79347 41.0126 12.053 17.7348 -27.0381 0.00109999 5.96046e-008 0.0731476 1.31632 1.26242e-007 -28.5227 0 0 -13.4615 -1.51239 4.88316 
-27.4592 90.6467 -226.299 -1.27021 7.12745 -0.282579 9.63379 -0.250344 -7.15256e-007 2.75896 -9.23275 9.39135 0 -40.4779 -1.71313 -4.04137 3.69022 0.106228 0.0126047 -40.4416 -0.864524 -0.0135453 0.0578779 -0.000899741 -0.183287 -12.1867 8.28226 1.70565e-011 -4.43765e-011 -5.82837e-011 -9.63379 -0.250344 -7.15256e-007 -1.86292 -10.8758 5.93826 0 -40.478 -1.71313 6.65546 8.34164 1.28345 -0.0126047 -40.4414 -0.864524 -0.0108721 -2.49517 0.000449802 0.183287 -12.1867 8.28226 -8.64351e-012 2.42533e-011 2.08613e-011 -2.64698e-023 5.60909 -1.89659 1.04872 -0.6142 -0.0947945 0 6.56349 1.09934 -0.0770433 -1.22602 -0.397007 0 7.57662 1.04304 -0.0769961 -1.22582 -0.397621 0 8.29213 0.399731 -0.0769633 -1.22562 -0.398236 0 8.9581 -0.526302 -0.0769451 -1.22542 -0.398852 0 18.4163 -4.35419 0.367569 -3.57447 3.52123 1.05879e-022 8.97127 1.78542 4.288 1.75412 2.49034 6.14423 15.3316 -3.79324 -28.783 2.60217 -3.95104 9.01906 -1.11411 -1.79347 -55.4407 -0.985501 -18.2383 27.687 0 0 7.4609 33.0926 -4.39619e-011 27.8738 0 0 0.698769 -2.34868 -8.83497 -6.14423 15.3316 -3.79324 35.5148 3.02172 3.75249 -9.01884 -1.11411 -1.79347 41.0021 12.0535 17.715 -27.0381 0.00109999 5.96046e-008 0.0791956 1.31416 1.26242e-007 -28.5227 0 0 -13.4486 -1.50503 4.82862 
-27.4544 90.646 -226.3 -1.26858 7.11896 -0.291188 9.63379 -0.250344 -7.15256e-007 2.75786 -9.22788 9.39429 0 -40.4779 -1.71313 -4.04501 3.69769 0.106229 0.0126047 -40.4416 -0.864524 -0.0135453 0.0591419 -0.000899741 -0.183287 -12.1867 8.28226 1.70565e-011 -4.43765e-011 -5.82837e-011 -9.63379 -0.250344 -7.15256e-007 -1.86664 -10.8721 5.92747 0 -40.478 -1.71313 6.65172 8.34919 1.28463 -0.0126047 -40.4414 -0.864524 -0.0108721 -2.49582 0.000449802 0.183287 -12.1867 8.28226 -8.64351e-012 2.42533e-011 2.08613e-011 -2.64698e-023 5.60909 -1.89659 1.04761 -0.612458 -0.0929526 0 6.56349 1.09934 -0.0794249 -1.22252 -0.393047 0 7.57662 1.04304 -0.0793778 -1.22233 -0.39366 0 8.29213 0.399731 -0.0793452 -1.22213 -0.394274 0 8.9581 -0.526302 -0.079327 -1.22194 -0.394888 0 18.4163 -4.35419 0.41367 -3.40105 3.52843 1.05879e-022 8.97127 1.78542 4.14313 1.51579 2.55693 6.14423 15.3316 -3.79324 -28.7996 2.59488 -3.92671 9.01906 -1.11411 -1.79347 -55.3894 -0.985543 -18.231 27.687 0 0 7.46028 32.9886 -4.391e-011 27.8738 0 0 0.757908 -2.33316 -8.8657 -6.14423 15.3316 -3.79324 35.5417 3.02421 3.75367 -9.01884 -1.11411 -1.79347 40.9813 12.0568 17.6892 -27.0381 0.00109999 5.96046e-008 0.0882858 1.31311 1.26241e-007 -28.5227 0 0 -13.4562 -1.50268 4.78922 
-27.4484 90.6455 -226.302 -1.26568 7.11158 -0.297386 9.63379 -0.250344 -7.15256e-007 2.75198 -9.22201 9.39136 0 -40.4779 -1.71313 -4.04489 3.6993 0.106229 0.0126047 -40.4416 -0.864524 -0.0135453 0.0596343 -0.000899741 -0.183287 -12.1867 8.28226 1.70565e-011 -4.43765e-011 -5.82837e-011 -9.63379 -0.250344 -7.15256e-007 -1.87482 -10.8768 5.89769 0 -40.478 -1.71313 6.64812 8.37226 1.28327 -0.0126047 -40.4414 -0.864524 -0.0108721 -2.49773 0.000449803 0.183287 -12.1867 8.28226 -8.64351e-012 2.42533e-011 2.08613e-011 -2.64698e-023 5.60909 -1.89659 1.04702 -0.611383 -0.0912367 0 6.56349 1.09934 -0.0819085 -1.22049 -0.389496 0 7.57662 1.04304 -0.0818616 -1.2203 -0.390108 0 8.29213 0.399731 -0.0818291 -1.2201 -0.390721 0 8.9581 -0.526302 -0.081811 -1.21991 -0.391335 0 18.4163 -4.35419 0.433747 -3.27283 3.53538 1.05879e-022 8.97127 1.78542 4.05101 1.35142 2.59958 6.14423 15.3316 -3.79324 -28.8043 2.58643 -3.90154 9.01906 -1.11411 -1.79347 -55.3538 -0.988315 -18.2197 27.687 0 0 7.46755 32.8564 -4.38445e-011 27.8738 0 0 0.798415 -2.32391 -8.9081 -6.14423 15.3316 -3.79324 35.5767 3.02822 3.757 -9.01884 -1.11411 -1.79347 40.9495 12.0646 17.6555 -27.0381 0.00109999 5.96046e-008 0.101996 1.31463 1.26242e-007 -28.5227 0 0 -13.4977 -1.50857 4.77458 
-27.4415 90.6453 -226.305 -1.26168 7.1049 -0.301911 9.63379 -0.250344 -7.15256e-007 2.74231 -9.21523 9.38384 0 -40.4779 -1.71313 -4.04188 3.69646 0.106229 0.0126047 -40.4416 -0.864524 -0.0135453 0.0595471 -0.000899741 -0.183287 -12.1867 8.28226 1.70565e-011 -4.43765e-011 -5.82837e-011 -9.63379 -0.250344 -7.15256e-007 -1.88652 -10.8882 5.85289 0 -40.478 -1.71313 6.64445 8.408 1.28002 -0.0126047 -40.4414 -0.864524 -0.0108721 -2.50077 0.000449804 0.183287 -12.1867 8.28226 -8.64351e-012 2.42533e-011 2.08613e-011 -2.64698e-023 5.60909 -1.89659 1.04687 -0.610796 -0.0895631 0 6.56349 1.09934 -0.0845527 -1.21955 -0.386156 0 7.57662 1.04304 -0.0845059 -1.21936 -0.386769 0 8.29213 0.399731 -0.0844735 -1.21917 -0.387382 0 8.9581 -0.526302 -0.0844554 -1.21898 -0.387996 0 18.4163 -4.35419 0.43444 -3.179 3.54244 1.05879e-022 8.97127 1.78542 3.99898 1.2439 2.62435 6.14423 15.3316 -3.79324 -28.7999 2.57714 -3.87592 9.01906 -1.11411 -1.79347 -55.33 -0.993049 -18.2055 27.687 0 0 7.48155 32.6997 -4.37674e-011 27.8738 0 0 0.82398 -2.31975 -8.96123 -6.14423 15.3316 -3.79324 35.6179 3.03348 3.76224 -9.01884 -1.11411 -1.79347 40.9096 12.0762 17.6156 -27.0381 0.00109999 5.96046e-008 0.119456 1.31841 1.26242e-007 -28.5227 0 0 -13.5671 -1.52128 4.78037 
